<svg xmlns="http://www.w3.org/2000/svg" enable-background="new 0 0 70 70" viewBox="0 0 70 70" id="coding"><path d="M66.943,39.619h-2.17V6.099c0-2.121-1.726-3.847-3.848-3.847H9.074c-2.121,0-3.847,1.726-3.847,3.847v33.52H3.057
		c-0.414,0-0.75,0.336-0.75,0.75v4.549c0,2.477,2.015,4.491,4.491,4.491h17.374v2.146c0,1.184-0.963,2.146-2.146,2.146h-4.667
		c-2.011,0-3.646,1.636-3.646,3.646c0,2.01,1.636,3.646,3.646,3.646h15.163c0.4,4.039,3.774,6.754,7.451,6.754h5.259
		c4.138,0,7.504-3.366,7.504-7.504c0-4.137-3.366-7.503-7.504-7.503h-5.259c-3.89,0-7.094,2.97-7.466,6.753H17.358
		c-1.184,0-2.146-0.963-2.146-2.146c0-1.184,0.963-2.146,2.146-2.146h4.667c2.011,0,3.646-1.636,3.646-3.646v-2.146h37.531
		c2.476,0,4.49-2.015,4.49-4.491v-4.549C67.693,39.955,67.357,39.619,66.943,39.619z M39.972,54.241h5.259
		c3.311,0,6.004,2.693,6.004,6.003c0,3.311-2.693,6.004-6.004,6.004h-5.259c-0.44,0-0.871-0.05-1.292-0.142
		c1.923-1.533,2.858-3.637,2.858-5.861c0-2.332-1.069-4.456-2.847-5.862C39.109,54.29,39.536,54.241,39.972,54.241z M37.021,55.038
		c1.871,1.074,3.017,3.034,3.017,5.206c0,2.279-1.261,4.198-3.022,5.21c-1.966-1.117-3.048-3.118-3.048-5.21
		C33.969,58.189,34.996,56.193,37.021,55.038z M6.728,6.099c0-1.294,1.053-2.347,2.347-2.347h51.852
		c1.295,0,2.348,1.053,2.348,2.347v33.52H6.728V6.099z M40.434,41.122v1.356c0,0.293-0.238,0.531-0.531,0.531h-9.804
		c-0.294,0-0.532-0.238-0.532-0.531v-1.356H40.434z M66.193,44.917c0,1.649-1.342,2.991-2.99,2.991H6.798
		c-1.649,0-2.991-1.342-2.991-2.991v-3.799c33.246,0.004,21.779,0.003,24.26,0.003v1.356c0,1.12,0.912,2.031,2.032,2.031h9.804
		c1.12,0,2.031-0.911,2.031-2.031v-1.356c2.481,0-8.986,0.001,24.26-0.003V44.917z"></path><path d="M57.7 7.607H43.393c-1.025 0-1.859.835-1.859 1.86V19.92c0 1.025.834 1.86 1.859 1.86H57.7c1.025 0 1.859-.835 1.859-1.86V9.467C59.56 8.442 58.726 7.607 57.7 7.607zM58.06 19.92c0 .198-.161.36-.359.36H43.393c-.198 0-.359-.162-.359-.36V9.467c0-.198.161-.36.359-.36H57.7c.198 0 .359.162.359.36V19.92zM11.131 10.235h2.84c.414 0 .75-.336.75-.75s-.336-.75-.75-.75h-2.84c-.414 0-.75.336-.75.75S10.717 10.235 11.131 10.235zM11.131 15.116h2.84c.414 0 .75-.336.75-.75s-.336-.75-.75-.75h-2.84c-.414 0-.75.336-.75.75S10.717 15.116 11.131 15.116zM18.354 10.235h11.4c.414 0 .75-.336.75-.75s-.336-.75-.75-.75h-11.4c-.414 0-.75.336-.75.75S17.939 10.235 18.354 10.235zM33.27 10.235h3.517c.414 0 .75-.336.75-.75s-.336-.75-.75-.75H33.27c-.414 0-.75.336-.75.75S32.855 10.235 33.27 10.235zM18.354 15.116h2.549c.414 0 .75-.336.75-.75s-.336-.75-.75-.75h-2.549c-.414 0-.75.336-.75.75S17.939 15.116 18.354 15.116zM37.536 14.366c0-.414-.336-.75-.75-.75H24.327c-.414 0-.75.336-.75.75s.336.75.75.75h12.459C37.2 15.116 37.536 14.78 37.536 14.366zM15.391 19.248h-2.84c-.414 0-.75.336-.75.75s.336.75.75.75h2.84c.414 0 .75-.336.75-.75S15.805 19.248 15.391 19.248zM15.391 24.128h-2.84c-.414 0-.75.336-.75.75s.336.75.75.75h2.84c.414 0 .75-.336.75-.75S15.805 24.128 15.391 24.128zM30.306 19.998c0-.414-.336-.75-.75-.75h-9.782c-.414 0-.75.336-.75.75s.336.75.75.75h9.782C29.97 20.748 30.306 20.412 30.306 19.998zM38.206 19.248h-3.924c-.414 0-.75.336-.75.75s.336.75.75.75h3.924c.414 0 .75-.336.75-.75S38.62 19.248 38.206 19.248zM19.773 24.128c-.414 0-.75.336-.75.75s.336.75.75.75h2.875c.414 0 .75-.336.75-.75s-.336-.75-.75-.75H19.773zM38.206 24.128H26.688c-.414 0-.75.336-.75.75s.336.75.75.75h11.519c.414 0 .75-.336.75-.75S38.62 24.128 38.206 24.128zM13.643 29.318h-2.84c-.414 0-.75.336-.75.75s.336.75.75.75h2.84c.414 0 .75-.336.75-.75S14.057 29.318 13.643 29.318zM13.643 34.199h-2.84c-.414 0-.75.336-.75.75s.336.75.75.75h2.84c.414 0 .75-.336.75-.75S14.057 34.199 13.643 34.199zM18.025 30.818h1.748c.414 0 .75-.336.75-.75s-.336-.75-.75-.75h-1.748c-.414 0-.75.336-.75.75S17.611 30.818 18.025 30.818zM36.458 29.318H24.506c-.414 0-.75.336-.75.75s.336.75.75.75h11.952c.414 0 .75-.336.75-.75S36.872 29.318 36.458 29.318zM36.458 34.199H18.025c-.414 0-.75.336-.75.75s.336.75.75.75h18.433c.414 0 .75-.336.75-.75S36.872 34.199 36.458 34.199zM52.164 29.318h-8.92c-.414 0-.75.336-.75.75s.336.75.75.75h8.92c.414 0 .75-.336.75-.75S52.578 29.318 52.164 29.318zM47.965 34.199h-4.721c-.414 0-.75.336-.75.75s.336.75.75.75h4.721c.414 0 .75-.336.75-.75S48.379 34.199 47.965 34.199z"></path><path d="M53.317 10.768c-.338-.243-.806-.165-1.047.17l-4.785 6.635c-.242.336-.166.805.17 1.047.338.243.806.164 1.047-.17l4.785-6.635C53.729 11.479 53.653 11.01 53.317 10.768zM54.654 14.225c-.293-.293-.768-.293-1.061 0s-.293.768 0 1.061l1.024 1.024-1.024 1.022c-.293.293-.293.768-.001 1.062.293.293.768.293 1.062.001l1.556-1.553c.141-.141.22-.332.22-.531 0-.198-.079-.39-.22-.53L54.654 14.225zM47.499 13.954l-1.024-1.022 1.024-1.024c.293-.293.293-.768 0-1.061s-.768-.293-1.061 0l-1.556 1.556c-.141.141-.22.332-.22.53 0 .199.079.391.22.531l1.556 1.553c.294.292.769.292 1.062-.001C47.792 14.721 47.792 14.247 47.499 13.954zM36.2 60.994h1.606c.414 0 .75-.336.75-.75s-.336-.75-.75-.75H36.2c-.414 0-.75.336-.75.75S35.786 60.994 36.2 60.994z"></path></svg>