<svg id="SvgjsSvg1074" width="288" height="288" xmlns="http://www.w3.org/2000/svg" version="1.1" xmlns:xlink="http://www.w3.org/1999/xlink" xmlns:svgjs="http://svgjs.com/svgjs"><defs id="SvgjsDefs1075"></defs><g id="SvgjsG1076"><svg xmlns="http://www.w3.org/2000/svg" viewBox="0 0 32 32" width="288" height="288"><path d="m16.572 3.994-.021.004-.59.018h-.045l-.32.039-.496.062.125.992.496-.062.293-.035.545-.02h.068l.5.028.055-1-.498-.026H16.572zm1.727.229-.317.949.475.158.178.059.672.328.449.219.437-.9-.449-.22-.697-.34-.03-.013-.03-.012-.214-.07-.474-.158zm-4.301.244-.453.21-.479.221-.039.016-.035.025-.39.272-.41.283.568.822.412-.283.351-.246.44-.201.455-.211-.42-.908zm7.127 1.281-.715.7.35.357.379.388.209.305.283.414.824-.566-.281-.412-.235-.342-.025-.035-.03-.032-.41-.42-.349-.357zm-4.625.248c-2.733 0-4.951 2.247-4.963 5H4.5a.5.5 0 0 0-.5.5v14.5H2.5a.5.5 0 0 0-.5.5c0 1.409 1.26 2.5 2.74 2.5h23.52c1.48 0 2.74-1.091 2.74-2.5a.5.5 0 0 0-.5-.5H29v-14.5a.5.5 0 0 0-.5-.5h-7.037c-.012-2.753-2.23-5-4.963-5zm-5.193.272-.291.406-.518.722-.02.026-.015.027-.053.1-.234.441.88.47.237-.44.037-.069.498-.695.291-.406-.812-.582zm5.193.728c2.193 0 3.965 1.792 3.965 4.022 0 1.191-.577 1.97-1.256 3.002-.61.926-1.202 2.113-1.33 3.73H17v-2.697a.5.5 0 1 0-1 0v2.697h-.879c-.128-1.617-.72-2.804-1.33-3.73-.68-1.032-1.256-1.81-1.256-3.002 0-2.23 1.772-4.022 3.965-4.022zm6.51 1.361-.957.291.144.479.114.373.002.012.11.54.102.491.98-.201-.1-.49-.114-.553-.004-.024-.008-.021-.125-.418-.144-.479zm-13.24.694-.11.486-.045.195-.111.489.976.22.11-.486.045-.195.111-.489-.976-.22zM5 11.996h6.65c.236 1.013.8 1.801 1.307 2.572.66 1.003 1.256 1.997 1.256 3.682v2.176a.5.5 0 0 0 .5.5h3.574a.5.5 0 0 0 .5-.5V18.25c0-1.685.595-2.679 1.256-3.682.508-.77 1.071-1.56 1.307-2.572H28v14H5v-14zM6.5 13a.5.5 0 0 0-.5.5v11a.5.5 0 0 0 .5.5h20a.5.5 0 0 0 .5-.5v-11a.5.5 0 0 0-.5-.5H22v1h4v10H7V14h4v-1H6.5zm8.713 5.75h1.21a.5.5 0 0 0 .153 0h1.211v1.176h-2.574V18.75zm-.076 3.246a.5.5 0 0 0 .05 1h2.626a.5.5 0 1 0 0-1h-2.625a.5.5 0 0 0-.051 0zm-11.903 5H29.766c-.247.55-.743 1-1.506 1H4.74c-.763 0-1.259-.45-1.506-1z" color="#000" font-family="sans-serif" font-weight="400" overflow="visible" style="line-height:normal;text-indent:0;text-align:start;text-decoration-line:none;text-decoration-style:solid;text-decoration-color:#000;text-transform:none;block-progression:tb;white-space:normal;isolation:auto;mix-blend-mode:normal;solid-color:#000;solid-opacity:1" fill="#ff3600" class="color000 svgShape"></path></svg></g></svg>