<svg id="SvgjsSvg1037" width="288" height="288" xmlns="http://www.w3.org/2000/svg" version="1.1" xmlns:xlink="http://www.w3.org/1999/xlink" xmlns:svgjs="http://svgjs.com/svgjs"><defs id="SvgjsDefs1038"></defs><g id="SvgjsG1039"><svg xmlns="http://www.w3.org/2000/svg" viewBox="0 0 64 64" width="288" height="288"><path d="M59 10H48V33a1 1 0 0 1-1 1H42v4c0 2.748-5.184 4-10 4s-10-1.252-10-4V34H17a1 1 0 0 1-1-1V10H5a1 1 0 0 0-1 1V44H60V11A1 1 0 0 0 59 10zM6 18H8v2H6zm0 4H8v2H6zm8 6H12V41a1 1 0 0 1-1 1H6V40h4V27a1 1 0 0 1 1-1h3zm0-4H10V22h4zm0-4H10V18h4zm0-4H10a1 1 0 0 1-1-1V14H6V12h4a1 1 0 0 1 1 1v1h3zm36 2h4v2H50zm0 4h4v2H50zm8 20H53a1 1 0 0 1-1-1V28H50V26h3a1 1 0 0 1 1 1V40h4zm0-18H56V22h2zm0-4H56V18h2zm0-6H55v1a1 1 0 0 1-1 1H50V14h3V13a1 1 0 0 1 1-1h4zM4 49a1 1 0 0 0 1 1H59a1 1 0 0 0 1-1V46H4zm27-2h2v2H31z" fill="#ff3600" class="color000 svgShape"></path><path d="M22,20c0-2.748,5.184-4,10-4s10,1.252,10,4V32h4V4H18V32h4Zm22-2H42V16H40V14h3a1,1,0,0,1,1,1Zm-8-8h8v2H36Zm-2,2H26V10h8ZM28,6h2V8H28ZM24,6h2V8H24ZM20,6h2V8H20Zm0,4h4v2H20Zm0,5a1,1,0,0,1,1-1h3v2H22v2H20Z" fill="#ff3600" class="color000 svgShape"></path><polygon points="26.847 52 26.18 56 37.82 56 37.153 52 26.847 52" fill="#ff3600" class="color000 svgShape"></polygon><polygon points="23.5 58 22 60 42 60 40.5 58 23.5 58" fill="#ff3600" class="color000 svgShape"></polygon><path d="M40 28.524A19.008 19.008 0 0 1 32 30a19.008 19.008 0 0 1-8-1.476V32c0 .514 2.751 2 8 2s8-1.486 8-2zM33 33H31V31h2zM40 22.524A19.008 19.008 0 0 1 32 24a19.008 19.008 0 0 1-8-1.476V26c0 .514 2.751 2 8 2s8-1.486 8-2zM33 27H31V25h2z" fill="#ff3600" class="color000 svgShape"></path><ellipse cx="32" cy="20" rx="8" ry="2" fill="#ff3600" class="color000 svgShape"></ellipse><path d="M24,34.524V38c0,.514,2.751,2,8,2s8-1.486,8-2V34.524A19.008,19.008,0,0,1,32,36,19.008,19.008,0,0,1,24,34.524ZM33,39H31V37h2Z" fill="#ff3600" class="color000 svgShape"></path></svg></g></svg>